<svg xmlns="http://www.w3.org/2000/svg" viewBox="0 0 64 64" fill="none">
  <defs>
    <linearGradient id="cladeGradient" x1="6" y1="6" x2="58" y2="58" gradientUnits="userSpaceOnUse">
      <stop offset="0" stop-color="#00F5FF" />
      <stop offset="0.5" stop-color="#FF00FF" />
      <stop offset="1" stop-color="#FFD700" />
    </linearGradient>
  </defs>

  <!-- Main trunk -->
  <path d="M32 54V32" stroke="url(#cladeGradient)" stroke-width="6" stroke-linecap="round" />

  <!-- First branching -->
  <path
    d="M32 32C32 32 24 26 16 26M32 32C32 32 40 26 48 26"
    stroke="url(#cladeGradient)"
    stroke-width="6"
    stroke-linecap="round"
    stroke-linejoin="round"
  />

  <!-- Second branching -->
  <path d="M16 26V14M48 26V14" stroke="url(#cladeGradient)" stroke-width="6" stroke-linecap="round" />

  <!-- Nodes -->
  <circle cx="16" cy="10" r="6" fill="url(#cladeGradient)" />
  <circle cx="48" cy="10" r="6" fill="url(#cladeGradient)" />
  <circle cx="32" cy="54" r="6" fill="url(#cladeGradient)" />

  <!-- Extra branches -->
  <path
    d="M16 20C16 20 10 18 6 18M48 20C48 20 54 18 58 18"
    stroke="url(#cladeGradient)"
    stroke-width="4"
    stroke-linecap="round"
    opacity="0.7"
  />
  <circle cx="6" cy="16" r="4" fill="url(#cladeGradient)" opacity="0.85" />
  <circle cx="58" cy="16" r="4" fill="url(#cladeGradient)" opacity="0.85" />
</svg>
